<svg id="Capa_1" data-name="Capa 1" xmlns="http://www.w3.org/2000/svg" viewBox="0 0 629.25 755.77"><defs><style>.cls-1{fill:#c1272d;}.cls-2{fill:#ffbe08;}</style></defs><title>LM PROMOTION logo</title><path class="cls-1" d="M256.91,754.58h509.4a21.53,21.53,0,0,0,21.54-21.51l.19-117.8a21.55,21.55,0,0,0-21.53-21.58l-390.95-.22A21.55,21.55,0,0,1,354,571.92v-192a21.56,21.56,0,0,0-3.32-11.5L234.21,183.76c-11.53-18.27-39.77-10.1-39.77,11.49V733.09A21.54,21.54,0,0,0,216,754.63Z" transform="translate(-177.11 -115)"/><path class="cls-2" d="M365.43,352.66V160.35c0-12.89,16.93-17.65,23.65-6.65L503.91,341.55a12.76,12.76,0,0,0,21.86-.13l131-220.18a12.77,12.77,0,0,1,11-6.24H775a12.77,12.77,0,0,1,12.77,12.73L789,561.25a12.76,12.76,0,0,1-12.76,12.8H660.75A12.76,12.76,0,0,1,648,561.36l-1-150.57c-.08-12.94-17.13-17.56-23.74-6.44L550.79,526.48a12.75,12.75,0,0,1-11,6.25H485.43a12.74,12.74,0,0,1-10.37-5.32L367.28,377.2a12.74,12.74,0,0,1-2.38-7.85Z" transform="translate(-177.11 -115)"/><path d="M232.8,794.05a18.53,18.53,0,0,0-7.21-5.55,26.5,26.5,0,0,0-10.86-2H178.25a1,1,0,0,0-1.14,1.14v79.7a1,1,0,0,0,1.14,1.15h14.3a1,1,0,0,0,1.14-1.15V841.16a1,1,0,0,1,1.14-1.15h19.9a27.8,27.8,0,0,0,10.86-1.88,17.64,17.64,0,0,0,7.21-5.43,23,23,0,0,0,4-8.47,44.15,44.15,0,0,0,1.26-11,43.25,43.25,0,0,0-1.26-10.75A22.88,22.88,0,0,0,232.8,794.05ZM222.45,816.4a20.55,20.55,0,0,1-.75,4,9.21,9.21,0,0,1-1.77,3.37,4,4,0,0,1-3.26,1.43H194.83a1,1,0,0,1-1.14-1.14v-21.5a1,1,0,0,1,1.14-1.15h21.84a4,4,0,0,1,3.26,1.43,9.25,9.25,0,0,1,1.77,3.38,20.45,20.45,0,0,1,.75,3.94c.11,1.34.17,2.39.17,3.15S222.56,815.07,222.45,816.4Z" transform="translate(-177.11 -115)"/><path d="M306.89,865.28,300.6,846c-.61-1.83-1.27-3.6-2-5.32a28.81,28.81,0,0,0-3.71-6,1,1,0,0,1-.12-.46.94.94,0,0,1,.17-.57,3,3,0,0,1,.29-.34,17.62,17.62,0,0,0,4.69-3.49,43.67,43.67,0,0,0,3.31-4.17q2.4-4.58,2.4-14.64v-2.63q-.33-10.86-5.48-16.24a18.15,18.15,0,0,0-6.06-4.34,16.54,16.54,0,0,0-6.29-1.26H245.26a1,1,0,0,0-1.14,1.14v79.7a1,1,0,0,0,1.14,1.15h14.29a1,1,0,0,0,1.15-1.15v-28a1,1,0,0,1,1.14-1.15h14q4.92.69,6.52,7.09l7.09,20a7.49,7.49,0,0,0,1,2c.53.8,1,1.2,1.48,1.2h15.78c.46,0,.69-.19.69-.58,0-.15-.21-.47-.63-1A4,4,0,0,1,306.89,865.28Zm-18.24-48.59a8.68,8.68,0,0,1-2.45,4,5.82,5.82,0,0,1-3.55,1.6H262c-.84,0-1.25-.38-1.25-1.14V802.51a1,1,0,0,1,1.14-1.15h22.41q2.52.35,4.35,4.12a7.56,7.56,0,0,1,.74,2.46,23.52,23.52,0,0,1,.17,2.91A18.55,18.55,0,0,1,288.65,816.69Z" transform="translate(-177.11 -115)"/><path d="M385.22,807.77c-.61-3-1.26-5.64-1.94-8a18.06,18.06,0,0,0-2.75-5.83,22.78,22.78,0,0,0-5.72-5.2,23.09,23.09,0,0,0-7.31-3.15,42.49,42.49,0,0,0-7.21-.68q-4.46-.12-10.63-.12c-4.12,0-7.66,0-10.64.12a42.47,42.47,0,0,0-7.2.68,23.79,23.79,0,0,0-13,8.35,18.26,18.26,0,0,0-2.74,5.83c-.69,2.37-1.33,5-1.94,8a51.51,51.51,0,0,0-.69,8c-.08,3.28-.11,7.17-.11,11.67v.68c0,4.5,0,8.39.11,11.67a51.51,51.51,0,0,0,.69,8c.61,3,1.25,5.64,1.94,8a18.22,18.22,0,0,0,2.74,5.84,23.7,23.7,0,0,0,13,8.34,42.32,42.32,0,0,0,7.2.69c3,.07,6.52.11,10.64.11s7.66,0,10.63-.11a42.35,42.35,0,0,0,7.21-.69,23.06,23.06,0,0,0,7.31-3.14,22.78,22.78,0,0,0,5.72-5.2,18,18,0,0,0,2.75-5.84q1-3.54,1.94-8a52.78,52.78,0,0,0,.69-8q.1-4.92.11-11.67v-.68q0-6.75-.11-11.67A52.78,52.78,0,0,0,385.22,807.77Zm-15.78,33.16q0,6.06-1.71,9.09a8.76,8.76,0,0,1-5.84,4.06,29.08,29.08,0,0,1-5.48.74c-2.14.12-4.39.17-6.75.17s-4.61,0-6.75-.17a29.31,29.31,0,0,1-5.49-.74,8.76,8.76,0,0,1-5.83-4.06q-1.71-3-1.71-9.09v-26.3q0-6.06,1.71-9.09a8.73,8.73,0,0,1,5.83-4.06,29.31,29.31,0,0,1,5.49-.74c2.14-.12,4.38-.18,6.75-.18s4.61.06,6.75.18a29.08,29.08,0,0,1,5.48.74,8.73,8.73,0,0,1,5.84,4.06q1.71,3,1.71,9.09Z" transform="translate(-177.11 -115)"/><path d="M476,789.36q-4.58-2.86-11.77-2.86a48.6,48.6,0,0,0-8.24.57,9.66,9.66,0,0,0-5.2,2.52,13.51,13.51,0,0,0-3.2,5.89,78.83,78.83,0,0,0-2.23,10.57l-5.95,38.65a6.76,6.76,0,0,1-.23,1.2c-.15.65-.3,1.32-.45,2a10.67,10.67,0,0,1-.58,1.83c-.22.54-.42.8-.57.8s-.32-.26-.51-.8-.38-1.14-.57-1.83a18.86,18.86,0,0,1-.46-2c-.12-.69-.21-1.18-.29-1.49l-6.17-37.85a105.8,105.8,0,0,0-2.29-10.86,13.75,13.75,0,0,0-3.14-6,9.46,9.46,0,0,0-5.09-2.57,45.68,45.68,0,0,0-8-.57,28.35,28.35,0,0,0-6,.63,15.42,15.42,0,0,0-5.2,2.11,10.89,10.89,0,0,0-3.66,4,12.91,12.91,0,0,0-1.37,6.28v67.81a1,1,0,0,0,1.14,1.15h14.29a1,1,0,0,0,1.15-1.15V804c0-.53.15-.8.45-.8h.58c.3.08.55.48.74,1.2a9.06,9.06,0,0,0,.4,1.32L425,860.14a17.13,17.13,0,0,0,1,2.86,8.14,8.14,0,0,0,2.06,2.68,11.56,11.56,0,0,0,3.49,2,15.64,15.64,0,0,0,5.43.8,18.28,18.28,0,0,0,6.06-.86,10.62,10.62,0,0,0,3.83-2.23,10.4,10.4,0,0,0,2.23-3.09,14.49,14.49,0,0,0,1.14-3.54q2.75-12.59,4.41-20.64t2.8-13.27q1.14-5.21,1.77-8.35t1.32-6c.07-.3.17-.76.28-1.37s.23-1.22.35-1.83.22-1.18.34-1.72a5.6,5.6,0,0,1,.28-1,7.27,7.27,0,0,1,.52-.86,1,1,0,0,1,.86-.4c.38,0,.6.25.68.74a8.09,8.09,0,0,1,.12,1v62.32a1,1,0,0,0,1.14,1.15h14.29a1,1,0,0,0,1.15-1.15V799.19Q480.59,792.21,476,789.36Z" transform="translate(-177.11 -115)"/><path d="M561.31,807.77c-.61-3-1.25-5.64-1.94-8a18.26,18.26,0,0,0-2.74-5.83,23,23,0,0,0-5.72-5.2,23.24,23.24,0,0,0-7.32-3.15,42.47,42.47,0,0,0-7.2-.68c-3-.08-6.52-.12-10.64-.12s-7.66,0-10.63.12a42.49,42.49,0,0,0-7.21.68,23.09,23.09,0,0,0-7.31,3.15,22.78,22.78,0,0,0-5.72,5.2,18.06,18.06,0,0,0-2.75,5.83c-.68,2.37-1.33,5-1.94,8a52.78,52.78,0,0,0-.69,8q-.11,4.92-.11,11.67v.68q0,6.75.11,11.67a52.78,52.78,0,0,0,.69,8q.92,4.46,1.94,8a18,18,0,0,0,2.75,5.84,22.78,22.78,0,0,0,5.72,5.2,23.06,23.06,0,0,0,7.31,3.14,42.35,42.35,0,0,0,7.21.69c3,.07,6.52.11,10.63.11s7.66,0,10.64-.11a42.32,42.32,0,0,0,7.2-.69,23.21,23.21,0,0,0,7.32-3.14,23,23,0,0,0,5.72-5.2,18.22,18.22,0,0,0,2.74-5.84c.69-2.36,1.33-5,1.94-8a52.78,52.78,0,0,0,.69-8q.12-4.92.12-11.67v-.68q0-6.75-.12-11.67A52.78,52.78,0,0,0,561.31,807.77Zm-15.77,33.16c0,4-.58,7.07-1.72,9.09a8.76,8.76,0,0,1-5.83,4.06,29.31,29.31,0,0,1-5.49.74c-2.14.12-4.39.17-6.75.17s-4.61,0-6.74-.17a29.08,29.08,0,0,1-5.49-.74,8.71,8.71,0,0,1-5.83-4.06q-1.72-3-1.72-9.09v-26.3q0-6.06,1.72-9.09a8.68,8.68,0,0,1,5.83-4.06,29.08,29.08,0,0,1,5.49-.74q3.19-.18,6.74-.18t6.75.18a29.31,29.31,0,0,1,5.49.74,8.73,8.73,0,0,1,5.83,4.06c1.14,2,1.72,5.05,1.72,9.09Z" transform="translate(-177.11 -115)"/><path d="M625.69,786.5H569.55a1,1,0,0,0-1.15,1.14v12.58a1,1,0,0,0,1.15,1.14h18.63a1,1,0,0,1,1.15,1.15v64.83a1,1,0,0,0,1.14,1.15h14.3a1,1,0,0,0,1.14-1.15V802.51a1,1,0,0,1,1.14-1.15h18.64a1,1,0,0,0,1.14-1.14V787.64A1,1,0,0,0,625.69,786.5Z" transform="translate(-177.11 -115)"/><rect x="456.59" y="671.5" width="16.58" height="81.99" rx="1.14"/><path d="M731.23,807.77c-.61-3-1.26-5.64-1.94-8a18.06,18.06,0,0,0-2.75-5.83,22.9,22.9,0,0,0-5.71-5.2,23.24,23.24,0,0,0-7.32-3.15,42.49,42.49,0,0,0-7.21-.68q-4.45-.12-10.63-.12T685,784.9a42.49,42.49,0,0,0-7.21.68,23.24,23.24,0,0,0-7.32,3.15,22.9,22.9,0,0,0-5.71,5.2,18.06,18.06,0,0,0-2.75,5.83c-.69,2.37-1.33,5-1.94,8a52.78,52.78,0,0,0-.69,8q-.1,4.92-.11,11.67v.68q0,6.75.11,11.67a52.78,52.78,0,0,0,.69,8c.61,3,1.25,5.64,1.94,8a18,18,0,0,0,2.75,5.84,22.9,22.9,0,0,0,5.71,5.2,23.21,23.21,0,0,0,7.32,3.14,42.35,42.35,0,0,0,7.21.69q4.46.11,10.63.11t10.63-.11a42.35,42.35,0,0,0,7.21-.69,23.21,23.21,0,0,0,7.32-3.14,22.9,22.9,0,0,0,5.71-5.2,18,18,0,0,0,2.75-5.84q1-3.54,1.94-8a52.78,52.78,0,0,0,.69-8q.11-4.92.11-11.67v-.68q0-6.75-.11-11.67A52.78,52.78,0,0,0,731.23,807.77Zm-15.78,33.16q0,6.06-1.71,9.09a8.76,8.76,0,0,1-5.84,4.06,29.08,29.08,0,0,1-5.48.74c-2.14.12-4.39.17-6.75.17s-4.61,0-6.75-.17a29.31,29.31,0,0,1-5.49-.74A8.76,8.76,0,0,1,677.6,850q-1.71-3-1.71-9.09v-26.3q0-6.06,1.71-9.09a8.73,8.73,0,0,1,5.83-4.06,29.31,29.31,0,0,1,5.49-.74q3.21-.18,6.75-.18t6.75.18a29.08,29.08,0,0,1,5.48.74,8.73,8.73,0,0,1,5.84,4.06q1.71,3,1.71,9.09Z" transform="translate(-177.11 -115)"/><path d="M805.22,786.5h-14.3a1,1,0,0,0-1.14,1.14v63.92c0,.77-.27,1.15-.8,1.15s-.92-.38-1.14-1.15l-15.33-56.48a11.16,11.16,0,0,0-4.4-6.29q-3.25-2.29-10.46-2.29a29,29,0,0,0-8.18,1,11.86,11.86,0,0,0-5.2,3,11.24,11.24,0,0,0-2.75,5.21,32.11,32.11,0,0,0-.8,7.66v64a1,1,0,0,0,1.15,1.15h14.29a1,1,0,0,0,1.14-1.15V803.19c0-.68.27-1,.8-1s.8.35,1,1L774.57,860a10.23,10.23,0,0,0,1.49,3.09,14.23,14.23,0,0,0,2.4,2.69,12.84,12.84,0,0,0,2.91,1.94,6.73,6.73,0,0,0,2.92.75h10.52a9,9,0,0,0,4.52-1.2,12.67,12.67,0,0,0,3.66-3.15,16.56,16.56,0,0,0,2.45-4.23,12.22,12.22,0,0,0,.92-4.57v-67.7A1,1,0,0,0,805.22,786.5Z" transform="translate(-177.11 -115)"/></svg>